<?xml version="1.0" encoding="utf-8"?>
<!-- Generator: Adobe Illustrator 15.1.0, SVG Export Plug-In . SVG Version: 6.00 Build 0)  -->
<!DOCTYPE svg PUBLIC "-//W3C//DTD SVG 1.1//EN" "http://www.w3.org/Graphics/SVG/1.1/DTD/svg11.dtd">
<svg version="1.1" id="Ebene_1" xmlns="http://www.w3.org/2000/svg" xmlns:xlink="http://www.w3.org/1999/xlink" x="0px" y="0px"
	 width="340.16px" height="226.77px" viewBox="0 0 340.16 226.77" enable-background="new 0 0 340.16 226.77" xml:space="preserve">
<path fill="#FFFFFF" stroke="#000000" stroke-miterlimit="10" d="M179.564,97.491l6.281,28.468l2.895,14.681l-10.633,5.505h-17.506
	l7.696-24.877L179.564,97.491z M185.682,48.885l-11.011,7.952l-9.787,22.021l-16.516,34.866c0,0-6.116,19.217-12.845,28.75
	s-14.681,20.798-14.681,20.798s-0.612,3.67,7.952,9.787s67.287-14.069,67.287-14.069l11.011,6.729l9.175-4.281
	c0,0,4.282-4.283,4.282-11.623s-13.516-15.903-13.516-15.903s-0.884-36.09-7.612-58.723S185.682,48.885,185.682,48.885z"/>
</svg>
