<?xml version="1.0" encoding="utf-8"?>
<!-- Generator: Adobe Illustrator 15.1.0, SVG Export Plug-In . SVG Version: 6.00 Build 0)  -->
<!DOCTYPE svg PUBLIC "-//W3C//DTD SVG 1.1//EN" "http://www.w3.org/Graphics/SVG/1.1/DTD/svg11.dtd">
<svg version="1.1" id="Ebene_1" xmlns="http://www.w3.org/2000/svg" xmlns:xlink="http://www.w3.org/1999/xlink" x="0px" y="0px"
	 width="340.16px" height="226.77px" viewBox="0 0 340.16 226.77" enable-background="new 0 0 340.16 226.77" xml:space="preserve">
<path fill="#FFFFFF" stroke="#000000" stroke-miterlimit="10" d="M185.643,70.247c7.337,1.821,5.112,11.323,8.396,16.792
	s4.275,5.16,4.198,9.595c-0.078,4.436-3.685,4.436-2.399,8.996s2.477,7.125,2.399,13.193c-0.078,6.068-6.07,20.811-10.195,26.387
	s-7.428,6.623-14.191,9.595c-6.764,2.973-12.195,2-12.195,2s-10.817,1.46-14.993-4.998s-3.893-31.19-2.999-39.28
	c0.895-8.09,10.795-21.29,10.795-21.29s8.981-15.612,12.594-17.391L185.643,70.247z M159.978,117.053
	c-0.944,1.357-0.833,12.277-0.498,13.982c1.016,5.178,4.006,5.178,6.972,5.178s3.035-3.641,5.438-6.214
	c2.403-2.573,3.885-9.075,3.885-13.995s-1.608-7.216-2.849-9.827s-5.419-3.625-5.419-3.625l-3.902,3.884
	C163.603,106.436,160.921,115.693,159.978,117.053z"/>
</svg>
