<?xml version="1.0" encoding="utf-8"?>
<!-- Generator: Adobe Illustrator 15.1.0, SVG Export Plug-In . SVG Version: 6.00 Build 0)  -->
<!DOCTYPE svg PUBLIC "-//W3C//DTD SVG 1.1//EN" "http://www.w3.org/Graphics/SVG/1.1/DTD/svg11.dtd">
<svg version="1.1" id="Ebene_1" xmlns="http://www.w3.org/2000/svg" xmlns:xlink="http://www.w3.org/1999/xlink" x="0px" y="0px"
	 width="340.16px" height="226.77px" viewBox="0 0 340.16 226.77" enable-background="new 0 0 340.16 226.77" xml:space="preserve">
<path fill="#FFFFFF" stroke="#000000" stroke-miterlimit="10" d="M88.965,87.072c8.424-8.735,21.139-7.499,21.139-7.499
	s58.689-69.111,65.997-71.997s12.021,1.827,15.556,6.541s-2.064,43.625-2.064,43.625s33.291-27.717,48.006-35.167
	c4.979-2.521,12.977-0.21,17.1,4.504c4.125,4.714-5.891,23.566-5.891,23.566l5.79,36.427c0,0,2.969,10.99-2,13.5s-13.499,0-13.499,0
	s22.27,60.648,20.998,62.996c-1.271,2.348-6.281,12.894-13.499,14.5s-28.499-7-28.499-7l-52.497,38.998l-12,8.999
	c0,0-4.369,4.041-13.5,0s6-22.498,6-22.498l47.63-61.619c0,0-25.643,8.197-35.659,8.197S124.36,124.36,124.36,124.36
	s-26.093-11.262-36.396-23.788 M122.724,100.726c0,0,26.643,16.775,31.815,20.032s37.708-1.768,37.708-1.768
	s14.14-2.946,19.442,4.124s-1.768,13.551,0,21.799s8.837,7.659,8.837,7.659s2.946,0,7.66,0c4.713,0-0.59-16.496-0.59-16.496
	l-7.659-21.8L211.1,98.958c0,0-4.714-7.659-2.946-14.729s14.14-5.07,14.14-5.07l8.249-3.178l-3.535-22.389l-12.962,8.838
	l-9.427,9.427l-8.837,7.069c0,0-1.768,7.659-10.017,6.481s-6.481-2.946-6.481-2.946l-7.069-20.031l-5.303-13.551l-19.442,22.388
	l-24.745,23.567V100.726z"/>
</svg>
