<?xml version="1.0" encoding="utf-8"?>
<!-- Generator: Adobe Illustrator 15.1.0, SVG Export Plug-In . SVG Version: 6.00 Build 0)  -->
<!DOCTYPE svg PUBLIC "-//W3C//DTD SVG 1.1//EN" "http://www.w3.org/Graphics/SVG/1.1/DTD/svg11.dtd">
<svg version="1.1" id="Ebene_1" xmlns="http://www.w3.org/2000/svg" xmlns:xlink="http://www.w3.org/1999/xlink" x="0px" y="0px"
	 width="340.16px" height="226.77px" viewBox="0 0 340.16 226.77" enable-background="new 0 0 340.16 226.77" xml:space="preserve">
<path fill="#FFFFFF" stroke="#000000" stroke-miterlimit="10" d="M185.537,49.356c0,0,2.978,0.346,6.155,5.275
	c3.179,4.929,0,21.982,0,21.982l-3.077,12.309l-3.078,12.31l-7.913,14.948l-3.517,18.464l8.793,10.552c0,0,5.997,9.814,8.792,24.618
	s0,17.586,0,17.586l-4.688,14.947c0,0-1.113,14.067-4.104,14.067c-2.991,0-5.005,3.409-8.793,0s1.759-16.705,1.759-16.705
	s1.99-5.477,4.168-15.847c2.178-10.369-1.53-16.686-1.53-16.686l-5.883-12.097l-4.668-10.765c0,0-5.246-1.784-5.276-11.43
	c-0.03-9.646,0-15.017,11.457-34.197c1.581-2.646,8.473-22.075,8.473-22.075s1.092-13.487-0.586-14.948
	c-1.679-1.461-10.246-7.936-4.836-12.31S185.537,49.356,185.537,49.356z"/>
</svg>
